# MagicaVoxel @ Ephtracy

# group
g Ground_Buffer_Blank

# material
mtllib Ground_Buffer_Blank.mtl
usemtl palette

# normals
vn -1 0 0
vn 1 0 0
vn 0 0 1
vn 0 0 -1
vn 0 -1 0
vn 0 1 0

# texcoords
vt 0.537109 0.5
vt 0.869141 0.5
vt 0.876953 0.5
vt 0.958984 0.5

# verts
v -50 0 50
v -50 0 -50
v -50 27 50
v -50 27 -50
v 49 27 50
v 49 27 -50
v 49 69 -33
v 49 69 -34
v 49 70 -33
v 49 70 -34
v 49 85 50
v 49 85 -50
v 50 0 50
v 50 0 -50
v 50 69 -33
v 50 69 -34
v 50 70 -33
v 50 70 -34
v 50 85 50
v 50 85 -50
v -50 0 50
v -50 27 50
v 49 0 50
v 49 27 50
v 49 85 50
v 50 0 50
v 50 85 50
v -50 0 -50
v -50 27 -50
v 49 0 -50
v 49 27 -50
v 49 85 -50
v 50 0 -50
v 50 85 -50
v -50 0 50
v 49 0 50
v 50 0 50
v -50 0 -50
v 49 0 -50
v 50 0 -50
v -50 27 50
v 49 27 50
v -50 27 -50
v 49 27 -50
v 49 85 50
v 50 85 50
v 49 85 -50
v 50 85 -50

# faces
f 3/2/1 2/2/1 1/2/1
f 4/2/1 2/2/1 3/2/1
f 7/3/1 6/3/1 5/3/1
f 8/3/1 6/3/1 7/3/1
f 9/3/1 7/3/1 5/3/1
f 9/1/1 8/1/1 7/1/1
f 10/3/1 6/3/1 8/3/1
f 10/1/1 8/1/1 9/1/1
f 11/3/1 9/3/1 5/3/1
f 11/3/1 10/3/1 9/3/1
f 12/3/1 6/3/1 10/3/1
f 12/3/1 10/3/1 11/3/1
f 13/3/2 14/3/2 15/3/2
f 15/3/2 14/3/2 16/3/2
f 13/3/2 15/3/2 17/3/2
f 15/1/2 16/1/2 17/1/2
f 16/3/2 14/3/2 18/3/2
f 17/1/2 16/1/2 18/1/2
f 13/3/2 17/3/2 19/3/2
f 17/3/2 18/3/2 19/3/2
f 18/3/2 14/3/2 20/3/2
f 19/3/2 18/3/2 20/3/2
f 23/2/3 22/2/3 21/2/3
f 24/2/3 22/2/3 23/2/3
f 26/3/3 24/3/3 23/3/3
f 26/3/3 25/3/3 24/3/3
f 27/3/3 25/3/3 26/3/3
f 28/2/4 29/2/4 30/2/4
f 30/2/4 29/2/4 31/2/4
f 30/3/4 31/3/4 33/3/4
f 31/3/4 32/3/4 33/3/4
f 33/3/4 32/3/4 34/3/4
f 38/2/5 36/2/5 35/2/5
f 39/3/5 37/3/5 36/3/5
f 39/2/5 36/2/5 38/2/5
f 40/3/5 37/3/5 39/3/5
f 41/2/6 42/2/6 43/2/6
f 43/2/6 42/2/6 44/2/6
f 45/3/6 46/3/6 47/3/6
f 47/3/6 46/3/6 48/3/6
